<svg version="1.1" id="Layer_1" xmlns="http://www.w3.org/2000/svg" xmlns:xlink="http://www.w3.org/1999/xlink" x="0px" y="0px"
	 width="100%" viewBox="0 0 1024 1024" enable-background="new 0 0 1024 1024" xml:space="preserve">
<path fill="#FFFFFF" opacity="1.000000" stroke="none" 
	d="
M644.000000,1025.000000 
	C429.333344,1025.000000 215.166672,1025.000000 1.000000,1025.000000 
	C1.000000,683.666687 1.000000,342.333344 1.000000,1.000000 
	C342.333344,1.000000 683.666687,1.000000 1025.000000,1.000000 
	C1025.000000,342.333344 1025.000000,683.666687 1025.000000,1025.000000 
	C898.166687,1025.000000 771.333313,1025.000000 644.000000,1025.000000 
M668.254822,694.554626 
	C668.405701,696.356750 668.556519,698.158813 668.857910,700.629761 
	C668.905396,701.084290 668.952881,701.538879 669.160767,702.794312 
	C670.825928,703.193787 672.488831,703.928589 674.156616,703.939819 
	C687.954651,704.033142 701.754517,704.070923 715.551270,703.908142 
	C717.625549,703.883606 721.371826,702.904114 721.456787,702.071655 
	C721.793030,698.776367 723.911011,694.813354 719.923157,692.075745 
	C719.923157,692.075745 719.933960,692.141846 719.629883,691.393799 
	C715.808289,690.931824 711.953369,690.647339 708.178406,689.937317 
	C706.110596,689.548401 702.718750,691.848022 702.422424,687.734131 
	C702.390808,687.295410 706.148376,686.546204 708.165649,686.006714 
	C710.764648,685.311707 713.381348,684.682861 715.985352,683.993408 
	C715.985352,683.993408 716.015503,683.981323 716.579285,683.496582 
	C716.118225,680.689575 720.769165,677.525024 716.000000,675.000000 
	C716.000000,675.000000 715.979492,675.013306 715.916138,674.271301 
	C714.320068,673.784851 712.723145,672.891052 711.128113,672.894409 
	C707.472961,672.901978 703.670410,673.660461 701.481750,667.992615 
	C704.894409,667.992615 707.324463,668.122498 709.734680,667.959412 
	C712.680542,667.760071 715.609680,667.315002 718.546082,666.976135 
	C718.375610,666.320068 718.205139,665.664062 717.830017,664.362427 
	C717.863770,663.914917 717.897461,663.467407 718.485840,662.612488 
	C718.301941,661.402100 718.118103,660.191650 717.795776,658.364807 
	C717.522583,657.588928 717.249390,656.812988 716.820496,655.235779 
	C716.161255,654.833679 715.505249,654.087952 714.842224,654.081665 
	C706.383057,654.000671 697.922058,653.973877 689.464233,654.104614 
	C688.630798,654.117493 687.814941,655.260620 686.334717,656.010010 
	C685.893738,655.961670 685.452759,655.913330 684.816284,655.116089 
	C681.980896,654.475647 679.145569,653.835205 675.074890,652.915771 
	C677.061707,652.072388 677.864014,651.435608 678.666382,651.435730 
	C690.207031,651.436584 701.747681,651.547668 713.288025,651.511536 
	C713.823059,651.509888 714.354553,650.375061 714.951111,649.358032 
	C714.951111,649.358032 715.142151,648.989380 715.589294,648.611572 
	C715.458191,647.745300 715.327087,646.879028 715.070435,645.180603 
	C715.111023,643.780884 715.151550,642.381104 715.698608,640.334351 
	C715.505676,634.227173 715.312744,628.119934 714.817261,621.566406 
	C714.541260,621.338745 714.265320,621.111145 713.369446,620.335815 
	C704.978821,620.223877 696.587952,620.020813 688.197693,620.041687 
	C684.472900,620.051025 680.749207,620.512695 676.512451,620.906006 
	C676.337830,620.933899 676.163147,620.961731 675.353394,621.019836 
	C674.121033,621.061829 672.888733,621.103821 671.031982,620.841370 
	C660.621643,622.568420 650.156494,624.052673 639.880920,626.375793 
	C638.780884,626.624451 638.467773,631.766357 638.489807,634.632996 
	C638.495789,635.408752 641.036377,636.722595 642.469177,636.803284 
	C644.791809,636.934021 647.160278,636.249939 649.484375,635.913574 
	C649.484375,639.093567 649.484375,641.482056 649.484375,644.350342 
	C645.557739,644.350342 641.139160,643.070801 638.882690,644.730652 
	C636.856689,646.221069 637.206787,650.941772 636.348206,654.995300 
	C640.920105,654.995300 644.326904,654.995300 649.488953,654.995300 
	C644.700928,664.299866 640.510864,672.442261 636.199097,680.821228 
	C637.994446,683.102661 640.035522,685.696411 642.479431,688.802002 
	C645.243713,685.038757 647.695129,681.701416 651.107239,677.056213 
	C651.107239,686.613098 651.107239,694.639832 651.107239,702.677002 
	C654.709290,702.677002 657.635681,702.677002 661.210144,702.677002 
	C661.210144,692.739075 661.210144,683.075562 661.210144,672.756409 
	C663.454163,674.817749 665.005249,676.242554 666.544434,677.656372 
	C672.831238,671.447266 672.910400,669.779053 667.345276,663.845276 
	C665.874268,662.276794 664.371399,660.738159 663.214050,658.486816 
	C665.804810,657.329468 668.395569,656.172058 671.195740,654.803711 
	C671.195740,654.803711 671.488403,654.752014 672.303345,654.894653 
	C673.242859,655.317139 674.182373,655.739624 674.997681,657.043823 
	C674.997681,659.993652 674.997681,662.943481 674.997681,666.713623 
	C680.166443,666.713623 684.862244,666.713623 689.431824,666.713623 
	C690.380188,674.825073 690.380188,674.825806 683.343872,674.833130 
	C681.514221,674.835022 679.680542,674.906860 677.855774,674.811279 
	C675.150146,674.669617 673.594238,675.695984 674.167664,678.557312 
	C674.681274,681.120178 673.041077,685.099121 678.104309,684.981873 
	C681.878357,684.894470 685.656128,684.964722 690.250549,684.964722 
	C689.732178,687.792969 689.338013,689.943420 688.024353,691.966370 
	C682.890259,691.967590 677.750732,691.842834 672.626099,692.063232 
	C671.420959,692.114990 670.265930,693.332031 668.879944,693.966919 
	C668.879944,693.966919 668.667725,693.984985 668.254822,694.554626 
M644.938782,388.087982 
	C654.254089,388.131683 663.569397,388.175415 672.908936,389.128601 
	C672.908936,400.404297 672.908936,411.679993 672.908936,423.711121 
	C660.796997,423.711121 649.244324,423.711121 637.323303,423.711121 
	C637.323303,426.113251 637.325256,427.752319 637.322876,429.391388 
	C637.313477,435.859802 637.313049,435.854706 643.830933,435.854156 
	C668.306030,435.852203 692.781067,435.853851 717.256165,435.854126 
	C719.029297,435.854156 720.802429,435.854126 722.678162,435.854126 
	C722.678162,431.497620 722.678162,427.792969 722.678162,423.844604 
	C720.326782,423.708832 718.350037,423.504089 716.372559,423.496063 
	C707.381775,423.459595 698.388550,423.364807 689.401001,423.537781 
	C686.147400,423.600403 685.051514,422.554657 685.104187,419.260223 
	C685.269043,408.940399 685.146973,398.616028 686.043945,388.178802 
	C696.264038,388.178802 706.484131,388.178802 716.742004,388.178802 
	C716.742004,383.755035 716.742004,380.045349 716.742004,375.739685 
	C705.972717,375.739685 695.555786,375.739685 685.120422,374.835205 
	C685.120422,365.746033 685.120422,356.656891 685.120422,347.456177 
	C680.756775,347.456177 677.060303,347.456177 672.881958,347.456177 
	C672.881958,357.167145 672.881958,366.449951 671.967285,375.828003 
	C663.654724,375.831604 655.339600,375.729675 647.031616,375.927185 
	C645.354675,375.967072 642.209595,377.456665 642.270325,377.743927 
	C642.983582,381.122589 639.601440,385.287994 644.938782,388.087982 
M644.234802,541.450378 
	C644.282898,542.647461 644.331055,543.844604 644.217102,545.668884 
	C644.271545,546.093811 644.325928,546.518799 644.157532,547.607361 
	C644.239563,548.059265 644.321533,548.511230 644.243286,549.602539 
	C644.277893,550.037598 644.312439,550.472717 644.379333,551.680847 
	C647.194153,551.975830 650.008972,552.270874 653.764648,552.754211 
	C660.376648,552.812500 666.988647,552.870728 673.611816,553.815979 
	C673.577820,569.244446 673.543823,584.672852 672.717773,600.209290 
	C672.464661,600.292480 672.211487,600.375732 671.496338,600.291199 
	C671.496338,600.291199 671.039551,600.472900 670.232544,600.275635 
	C669.132690,600.331482 668.032898,600.387390 666.239258,600.186462 
	C665.515320,600.267639 664.791443,600.348877 663.167908,600.248413 
	C660.418518,600.312256 657.669189,600.376099 654.141541,600.182373 
	C652.791626,600.269531 651.441772,600.356689 649.199524,600.260803 
	C646.484802,600.312500 643.770020,600.364197 640.314209,600.139160 
	C639.455994,600.900085 637.932068,601.601196 637.857361,602.432495 
	C637.567810,605.654724 637.739563,608.918457 637.739563,612.186646 
	C666.179016,612.186646 693.909363,612.186646 722.096619,612.186646 
	C722.096619,608.797485 722.337830,605.787598 721.955566,602.859131 
	C721.834473,601.931458 720.049194,601.221008 718.104492,600.240356 
	C713.089478,600.310730 708.074524,600.381104 702.258240,600.193787 
	C701.153564,600.288025 700.048889,600.382202 698.066406,600.272461 
	C695.062439,600.334473 692.058411,600.396484 688.282104,600.003662 
	C687.778687,598.372009 686.857666,596.745178 686.839050,595.107971 
	C686.712463,583.954529 686.775818,572.798889 686.777710,561.643982 
	C686.778137,558.873169 686.777771,556.102295 686.777771,553.215576 
	C689.914307,552.941650 692.361450,552.727905 695.747314,552.717590 
	C701.818420,552.690430 707.889526,552.663269 714.561951,552.619995 
	C714.734253,552.079224 714.906494,551.538513 715.215088,550.165527 
	C715.171692,548.483337 715.128296,546.801147 715.330322,544.843201 
	C715.356018,544.722839 715.427368,544.589722 715.397949,544.484863 
	C715.334229,544.257568 715.218872,544.044678 715.273071,543.128113 
	C715.171509,542.431763 715.069946,541.735413 714.560608,540.273621 
	C713.913269,540.158447 713.265930,539.942749 712.618591,539.942627 
	C691.211792,539.938171 669.804993,539.938049 648.398376,540.010132 
	C647.188782,540.014221 645.981323,540.635742 644.234802,541.450378 
M672.036194,462.942871 
	C662.602905,462.944977 653.167419,462.850159 643.738708,463.058899 
	C642.400818,463.088531 640.129028,464.430786 639.957214,465.447388 
	C639.448669,468.455688 639.775391,471.605225 639.775391,474.927917 
	C649.126221,474.927917 658.033936,474.927917 667.394958,475.337769 
	C666.683105,476.972504 666.130798,478.700989 665.234131,480.227112 
	C657.925354,492.667328 649.293823,503.971741 636.622559,512.173157 
	C638.993774,514.723633 641.176086,516.735718 642.945435,519.061890 
	C644.994507,521.755981 646.878357,521.803223 649.045715,519.412109 
	C654.397705,513.507629 659.913818,507.739685 665.023376,501.632019 
	C668.295532,497.720642 670.962097,493.302643 673.828369,490.025330 
	C673.828369,503.949402 673.828369,517.873474 673.828369,531.830444 
	C678.369385,531.830444 682.080383,531.830444 685.842468,531.830444 
	C685.842468,517.979675 685.842468,504.517578 686.229370,490.585266 
	C687.130615,491.598663 688.072083,492.579346 688.926697,493.630676 
	C695.796997,502.082520 702.565979,510.619965 709.617615,518.917297 
	C710.496826,519.951782 713.564514,520.613403 714.385071,519.941589 
	C717.243347,517.601440 719.559509,514.599121 722.291687,511.619659 
	C708.104004,502.372253 698.962585,489.657501 691.250305,475.399689 
	C692.436279,475.163513 693.239990,475.003479 694.961304,475.014069 
	C703.204834,475.014069 711.448364,475.014069 719.769165,475.014069 
	C719.769165,470.747955 719.769165,467.060394 719.769165,462.900055 
	C708.251282,462.900055 697.149109,462.900055 685.958679,461.979126 
	C685.958679,455.743134 685.958679,449.507172 685.958679,442.937073 
	C682.778198,442.790588 680.323242,442.694977 677.870544,442.560394 
	C674.306946,442.364777 672.989136,443.741638 673.231934,447.544708 
	C673.557068,452.637604 673.092712,457.780914 672.036194,462.942871 
M612.962952,672.324341 
	C612.679077,671.285828 612.395203,670.247314 611.748962,667.882751 
	C543.266357,718.409607 475.521332,768.392212 406.972443,818.967896 
	C412.172516,820.695068 415.760681,821.964661 419.395813,823.081421 
	C440.387787,829.530457 461.842712,833.314087 483.721161,835.399780 
	C506.382172,837.560059 528.962036,837.204956 551.476379,834.717102 
	C570.657166,832.597595 589.799072,829.768311 608.720276,823.039062 
	C609.553467,822.727661 610.386597,822.416321 611.637573,822.125000 
	C611.637573,822.125000 612.000671,821.917480 612.765198,821.530884 
	C612.864746,806.920837 613.053345,792.310669 613.046021,777.700684 
	C613.028564,742.815735 612.918823,707.930786 612.962952,672.324341 
M846.132507,458.135681 
	C844.331421,447.682404 843.058167,437.105255 840.639587,426.796844 
	C828.998535,377.181519 807.039673,332.643982 774.878052,293.000092 
	C746.328918,257.809174 711.819946,230.127075 671.620972,209.571915 
	C631.113770,188.859177 587.976562,176.857681 542.658630,173.061249 
	C515.722412,170.804718 488.749969,171.212936 461.976532,175.176376 
	C431.982483,179.616592 402.894073,187.595139 375.136017,199.902496 
	C308.489410,229.452286 257.169922,276.096832 220.775681,339.196899 
	C193.941956,385.721069 180.402618,436.202148 178.268707,489.556152 
	C177.455048,509.899506 178.896423,530.510986 181.297134,550.764771 
	C185.270630,584.287476 195.525223,616.233337 210.346695,646.567993 
	C223.914459,674.336792 241.207153,699.640747 261.836090,722.727966 
	C282.379059,745.718994 305.464691,765.591003 331.553406,782.018494 
	C334.263428,783.724792 336.251923,783.825134 339.213501,782.344788 
	C380.770020,761.571899 422.408600,740.963074 464.040558,720.341309 
	C512.242249,696.465271 560.445007,672.591187 608.693054,648.809143 
	C611.954773,647.201477 613.136108,645.252930 613.124817,641.533203 
	C612.977722,593.037354 613.011780,544.540955 613.008911,496.044708 
	C613.006226,449.714996 612.986450,403.385254 613.108032,357.055847 
	C613.113403,355.007172 613.855042,352.319672 615.260986,351.016571 
	C626.740051,340.377533 638.449036,329.986145 650.107910,319.541626 
	C659.880432,310.786896 669.679688,302.061920 679.684509,293.129700 
	C689.797424,301.966675 699.680420,310.620087 709.582764,319.251221 
	C721.744873,329.851929 733.923157,340.434021 746.085266,351.956482 
	C746.027649,381.454468 745.931091,410.952393 745.919495,440.450409 
	C745.881165,537.948914 745.873413,635.447388 745.854126,732.945862 
	C745.853577,735.800781 745.854065,738.655701 745.854065,741.510620 
	C746.273804,741.606567 746.693542,741.702515 747.113281,741.798462 
	C747.843628,740.909058 748.573914,740.019714 749.882324,738.827637 
	C760.518188,726.730896 771.845093,715.167114 781.660522,702.437744 
	C811.324707,663.966919 831.667603,620.944092 841.627686,573.297607 
	C844.222595,560.884155 845.299500,548.153442 847.703125,534.927490 
	C847.917603,531.312134 848.132019,527.696716 848.685791,523.347351 
	C848.709229,522.543701 848.732727,521.739990 848.967712,520.028748 
	C848.885132,508.052826 848.802490,496.076904 848.866089,483.288147 
	C848.689209,482.497345 848.512268,481.706543 848.516785,480.139069 
	C847.688049,473.093872 846.859314,466.048645 846.132507,458.135681 
z"/>
<path fill="#E28E35" opacity="1.000000" stroke="none" 
	d="
M848.335388,480.915741 
	C848.512268,481.706543 848.689209,482.497345 848.560181,484.022156 
	C848.172607,492.226349 847.985474,499.697418 848.048157,507.166382 
	C848.086731,511.758026 848.507202,516.346436 848.756226,520.936340 
	C848.732727,521.739990 848.709229,522.543701 848.189453,523.860474 
	C847.486633,528.105225 847.280151,531.836792 847.073608,535.568420 
	C845.299500,548.153442 844.222595,560.884155 841.627686,573.297607 
	C831.667603,620.944092 811.324707,663.966919 781.660522,702.437744 
	C771.845093,715.167114 760.518188,726.730896 749.175293,738.874512 
	C747.979736,736.807251 747.064941,734.693359 747.063843,732.578857 
	C746.997131,607.468079 747.010193,482.357208 746.969360,357.246368 
	C746.968628,355.172211 746.398743,353.098236 746.094482,351.024170 
	C733.923157,340.434021 721.744873,329.851929 709.582764,319.251221 
	C699.680420,310.620087 689.797424,301.966675 679.684509,293.129700 
	C669.679688,302.061920 659.880432,310.786896 650.107910,319.541626 
	C638.449036,329.986145 626.740051,340.377533 615.260986,351.016571 
	C613.855042,352.319672 613.113403,355.007172 613.108032,357.055847 
	C612.986450,403.385254 613.006226,449.714996 613.008911,496.044708 
	C613.011780,544.540955 612.977722,593.037354 613.124817,641.533203 
	C613.136108,645.252930 611.954773,647.201477 608.693054,648.809143 
	C560.445007,672.591187 512.242249,696.465271 464.040558,720.341309 
	C422.408600,740.963074 380.770020,761.571899 339.213501,782.344788 
	C336.251923,783.825134 334.263428,783.724792 331.553406,782.018494 
	C305.464691,765.591003 282.379059,745.718994 261.836090,722.727966 
	C241.207153,699.640747 223.914459,674.336792 210.346695,646.567993 
	C195.525223,616.233337 185.270630,584.287476 181.297134,550.764771 
	C178.896423,530.510986 177.455048,509.899506 178.268707,489.556152 
	C180.402618,436.202148 193.941956,385.721069 220.775681,339.196899 
	C257.169922,276.096832 308.489410,229.452286 375.136017,199.902496 
	C402.894073,187.595139 431.982483,179.616592 461.976532,175.176376 
	C488.749969,171.212936 515.722412,170.804718 542.658630,173.061249 
	C587.976562,176.857681 631.113770,188.859177 671.620972,209.571915 
	C711.819946,230.127075 746.328918,257.809174 774.878052,293.000092 
	C807.039673,332.643982 828.998535,377.181519 840.639587,426.796844 
	C843.058167,437.105255 844.331421,447.682404 846.083008,459.027771 
	C846.025391,461.896332 845.800842,463.900726 846.051453,465.843842 
	C846.701172,470.882202 847.559998,475.893585 848.335388,480.915741 
M480.092072,499.950989 
	C480.092072,499.950989 480.114349,499.860016 480.031586,500.737427 
	C480.352142,506.852051 480.929077,512.965820 480.949646,519.081421 
	C481.047638,548.203735 480.971008,577.326660 481.050934,606.449036 
	C481.055908,608.257324 481.867615,610.063293 483.203308,611.874756 
	C499.278229,611.874756 515.353149,611.874756 531.682251,611.874756 
	C531.682251,610.017456 531.682007,608.873596 531.682312,607.729797 
	C531.691040,575.246948 531.667542,542.764038 531.766541,510.281494 
	C531.774963,507.518555 532.050781,504.519592 533.130188,502.033020 
	C545.487183,473.567169 558.057129,445.193878 570.500916,416.765533 
	C577.927551,399.799042 585.231506,382.778870 592.648987,365.648071 
	C592.021118,365.467987 591.578857,365.230988 591.136108,365.230133 
	C576.311096,365.201294 561.484070,365.088104 546.663818,365.350128 
	C545.176270,365.376434 543.034424,367.405975 542.367065,368.996948 
	C531.331360,395.306458 520.487793,421.696533 509.582947,448.061005 
	C508.881927,449.755859 508.032898,451.389496 506.835724,453.940063 
	C505.221161,450.648346 504.031677,448.475464 503.062561,446.208374 
	C493.478394,423.787476 483.949188,401.343109 474.357147,378.925629 
	C472.410858,374.376923 471.398224,368.156525 467.897186,365.900482 
	C464.346649,363.612549 458.248016,365.237213 453.265167,365.222260 
	C443.330200,365.192505 433.395081,365.213470 422.969116,365.213470 
	C423.392883,366.566071 423.560913,367.337708 423.868195,368.049194 
	C435.053558,393.946381 446.304382,419.815460 457.429138,445.738586 
	C464.424835,462.040100 471.234192,478.421570 478.084106,495.397736 
	C478.351715,495.933868 478.619293,496.469971 479.011597,497.412964 
	C479.011597,497.412964 479.043457,497.837341 479.049377,498.497406 
	C479.428009,498.978729 479.806610,499.460022 480.092072,499.950989 
M367.202820,365.929932 
	C367.135223,366.287445 367.067596,366.644928 366.400238,367.584747 
	C366.269592,368.228058 366.027496,368.870758 366.024109,369.514740 
	C365.704987,430.473877 365.404083,491.433105 365.166687,552.713318 
	C365.166687,552.713318 364.978058,552.981018 364.458557,553.394165 
	C364.339172,554.032410 364.219818,554.670593 364.078461,556.002197 
	C356.892639,573.388794 332.652832,578.359131 316.561951,569.093872 
	C304.661530,562.241516 302.037964,550.836670 302.036255,538.340027 
	C302.028564,482.386719 302.073364,426.433441 302.099121,370.480133 
	C302.099854,368.879181 302.099213,367.278198 302.099213,365.580963 
	C300.879730,365.391174 300.244110,365.206512 299.608276,365.205841 
	C285.120605,365.190857 270.632843,365.178070 256.145386,365.233673 
	C255.068481,365.237854 253.993591,365.759857 252.351913,366.639740 
	C252.237640,367.289368 252.023438,367.938934 252.023300,368.588593 
	C252.010895,428.245209 251.984894,487.901855 252.112396,547.558228 
	C252.118347,550.340759 253.504562,553.120361 254.741989,556.478088 
	C259.714172,581.486877 273.721863,599.442871 297.340210,609.086670 
	C317.885101,617.475586 339.340240,617.164978 360.569519,612.260071 
	C381.618317,607.396912 397.645996,595.306152 406.638794,575.269836 
	C409.516541,568.858032 410.832611,561.745300 413.522766,554.435181 
	C413.681458,552.966675 413.978363,551.498291 413.978882,550.029724 
	C414.000000,490.277771 414.001312,430.525848 413.954285,370.773926 
	C413.953064,369.200073 413.388794,367.626678 412.771393,365.608002 
	C412.502014,365.365967 412.232666,365.123901 411.350372,364.333679 
	C397.392212,364.226471 383.434113,364.096497 369.475830,364.071655 
	C368.683533,364.070251 367.889709,364.930481 367.202820,365.929932 
z"/>
<path fill="#E18E36" opacity="1.000000" stroke="none" 
	d="
M612.000671,821.917480 
	C612.000671,821.917480 611.637573,822.125000 611.078674,822.077271 
	C609.691406,822.315063 608.863037,822.600647 608.034668,822.886230 
	C589.799072,829.768311 570.657166,832.597595 551.476379,834.717102 
	C528.962036,837.204956 506.382172,837.560059 483.721161,835.399780 
	C461.842712,833.314087 440.387787,829.530457 419.395813,823.081421 
	C415.760681,821.964661 412.172516,820.695068 406.972443,818.967896 
	C475.521332,768.392212 543.266357,718.409607 611.748962,667.882751 
	C612.395203,670.247314 612.679077,671.285828 612.638733,672.997070 
	C612.210999,675.486511 612.017639,677.303223 612.016968,679.119995 
	C611.999390,726.719177 612.001770,774.318298 612.000671,821.917480 
z"/>
<path fill="#E0903A" opacity="1.000000" stroke="none" 
	d="
M673.900146,489.111786 
	C670.962097,493.302643 668.295532,497.720642 665.023376,501.632019 
	C659.913818,507.739685 654.397705,513.507629 649.045715,519.412109 
	C646.878357,521.803223 644.994507,521.755981 642.945435,519.061890 
	C641.176086,516.735718 638.993774,514.723633 636.622559,512.173157 
	C649.293823,503.971741 657.925354,492.667328 665.234131,480.227112 
	C666.130798,478.700989 666.683105,476.972504 666.875122,474.845459 
	C659.222839,474.238892 652.084351,473.901886 644.960205,474.095459 
	C640.807556,474.208313 640.941467,471.877869 640.964539,469.027344 
	C640.987183,466.233276 640.710083,463.774445 644.915588,463.920105 
	C652.555054,464.184692 660.211365,464.056274 667.858337,463.940826 
	C669.566162,463.915039 671.264587,463.265106 672.967346,462.902557 
	C673.092712,457.780914 673.557068,452.637604 673.231934,447.544708 
	C672.989136,443.741638 674.306946,442.364777 677.870544,442.560394 
	C680.323242,442.694977 682.778198,442.790588 685.958679,442.937073 
	C685.958679,449.507172 685.958679,455.743134 686.269897,462.759491 
	C695.687500,463.690826 704.795471,464.003754 713.899414,463.914368 
	C717.623535,463.877808 719.164307,464.674347 719.147156,468.837646 
	C719.129883,473.030945 717.836182,474.190948 713.740723,474.116821 
	C707.181519,473.998138 700.609985,474.565887 694.043640,474.843445 
	C693.239990,475.003479 692.436279,475.163513 691.250305,475.399689 
	C698.962585,489.657501 708.104004,502.372253 722.291687,511.619659 
	C719.559509,514.599121 717.243347,517.601440 714.385071,519.941589 
	C713.564514,520.613403 710.496826,519.951782 709.617615,518.917297 
	C702.565979,510.619965 695.796997,502.082520 688.926697,493.630676 
	C688.072083,492.579346 687.130615,491.598663 685.768494,491.129486 
	C685.200928,503.290466 684.915955,514.909790 685.084229,526.522583 
	C685.143127,530.589539 683.428711,531.110901 680.031128,531.087280 
	C676.719788,531.064148 674.809814,530.735352 674.912598,526.589478 
	C675.180359,515.795898 675.049561,504.990845 674.952393,494.191498 
	C674.937134,492.495239 674.267273,490.804871 673.900146,489.111786 
z"/>
<path fill="#DF903C" opacity="1.000000" stroke="none" 
	d="
M672.881958,375.732727 
	C672.881958,366.449951 672.881958,357.167145 672.881958,347.456177 
	C677.060303,347.456177 680.756775,347.456177 685.120422,347.456177 
	C685.120422,356.656891 685.120422,365.746033 685.339844,375.647339 
	C694.299988,376.642670 703.042603,377.013550 711.780396,376.921356 
	C715.544434,376.881622 716.233032,378.496124 716.070312,381.693268 
	C715.923340,384.578583 716.429993,387.268555 711.910461,387.076813 
	C704.469543,386.761108 697.004028,386.925385 689.551880,387.054993 
	C688.073242,387.080688 686.607666,387.861023 685.136108,388.293396 
	C685.146973,398.616028 685.269043,408.940399 685.104187,419.260223 
	C685.051514,422.554657 686.147400,423.600403 689.401001,423.537781 
	C698.388550,423.364807 707.381775,423.459595 716.372559,423.496063 
	C718.350037,423.504089 720.326782,423.708832 722.678162,423.844604 
	C722.678162,427.792969 722.678162,431.497620 722.678162,435.854126 
	C720.802429,435.854126 719.029297,435.854156 717.256165,435.854126 
	C692.781067,435.853851 668.306030,435.852203 643.830933,435.854156 
	C637.313049,435.854706 637.313477,435.859802 637.322876,429.391388 
	C637.325256,427.752319 637.323303,426.113251 637.323303,423.711121 
	C649.244324,423.711121 660.796997,423.711121 672.908936,423.711121 
	C672.908936,411.679993 672.908936,400.404297 672.674133,388.321777 
	C662.966858,387.331116 653.494446,387.147308 643.853027,386.590820 
	C641.778381,377.562469 642.208313,376.985382 650.543884,376.990692 
	C656.507324,376.994507 662.472656,377.076843 668.432861,376.938538 
	C669.924438,376.903931 671.399353,376.153961 672.881958,375.732727 
z"/>
<path fill="#E0903B" opacity="1.000000" stroke="none" 
	d="
M644.347046,550.907776 
	C644.312439,550.472717 644.277893,550.037598 644.515015,549.154907 
	C644.651245,548.119385 644.515808,547.531555 644.380310,546.943726 
	C644.325928,546.518799 644.271545,546.093811 644.617676,545.251587 
	C645.381653,543.567871 645.745178,542.301514 646.570435,541.027588 
	C669.677673,541.026428 692.322998,541.032715 714.968384,541.039062 
	C715.069946,541.735413 715.171509,542.431763 715.153931,543.799377 
	C715.051453,544.686768 715.068176,544.902832 715.084900,545.118958 
	C715.128296,546.801147 715.171692,548.483337 714.906494,550.697388 
	C714.385498,551.698242 714.173035,552.167175 713.960632,552.636108 
	C707.889526,552.663269 701.818420,552.690430 694.990479,552.435486 
	C685.015381,551.568115 685.020020,551.568115 685.023193,560.731689 
	C685.027161,572.152710 684.908569,583.575928 685.123840,594.992859 
	C685.163696,597.108887 686.534241,599.199829 687.290710,601.302307 
	C687.878601,601.021057 688.466553,600.739807 689.054443,600.458557 
	C692.058411,600.396484 695.062439,600.334473 698.612915,600.661316 
	C700.459473,600.850647 701.759521,600.651062 703.059509,600.451477 
	C708.074524,600.381104 713.089478,600.310730 718.778564,600.607666 
	C723.183960,607.576416 721.403503,611.012329 714.239136,611.013123 
	C690.995117,611.015686 667.751160,611.023376 644.507141,611.002808 
	C639.390991,610.998291 638.324219,609.846802 639.075134,604.747925 
	C639.297363,603.239441 640.371582,601.856445 641.055298,600.415894 
	C643.770020,600.364197 646.484802,600.312500 649.905273,600.535156 
	C652.047241,600.686340 653.483521,600.563110 654.919800,600.439941 
	C657.669189,600.376099 660.418518,600.312256 663.819824,600.510376 
	C665.292236,600.662659 666.112610,600.553040 666.933044,600.443359 
	C668.032898,600.387390 669.132690,600.331482 670.733643,600.475708 
	C671.234802,600.675842 671.636230,600.714722 671.636230,600.714722 
	C671.636230,600.714722 671.958374,600.458984 671.958374,600.458984 
	C672.211487,600.375732 672.464661,600.292480 673.443665,599.983154 
	C674.442444,599.012512 674.950500,598.268982 674.953247,597.523560 
	C675.003601,583.619446 675.021606,569.714905 674.936707,555.811157 
	C674.930847,554.847717 674.066040,553.889587 673.600647,552.928955 
	C666.988647,552.870728 660.376648,552.812500 653.014526,552.467407 
	C649.625305,551.756348 646.986206,551.332031 644.347046,550.907776 
z"/>
<path fill="#DE913E" opacity="1.000000" stroke="none" 
	d="
M662.883118,659.185852 
	C664.371399,660.738159 665.874268,662.276794 667.345276,663.845276 
	C672.910400,669.779053 672.831238,671.447266 666.544434,677.656372 
	C665.005249,676.242554 663.454163,674.817749 661.210144,672.756409 
	C661.210144,683.075562 661.210144,692.739075 661.210144,702.677002 
	C657.635681,702.677002 654.709290,702.677002 651.107239,702.677002 
	C651.107239,694.639832 651.107239,686.613098 651.107239,677.056213 
	C647.695129,681.701416 645.243713,685.038757 642.479431,688.802002 
	C640.035522,685.696411 637.994446,683.102661 636.199097,680.821228 
	C640.510864,672.442261 644.700928,664.299866 649.488953,654.995300 
	C644.326904,654.995300 640.920105,654.995300 636.348206,654.995300 
	C637.206787,650.941772 636.856689,646.221069 638.882690,644.730652 
	C641.139160,643.070801 645.557739,644.350342 649.484375,644.350342 
	C649.484375,641.482056 649.484375,639.093567 649.484375,635.913574 
	C647.160278,636.249939 644.791809,636.934021 642.469177,636.803284 
	C641.036377,636.722595 638.495789,635.408752 638.489807,634.632996 
	C638.467773,631.766357 638.780884,626.624451 639.880920,626.375793 
	C650.156494,624.052673 660.621643,622.568420 671.371033,621.435303 
	C671.615295,624.979004 672.675232,629.260010 671.161072,630.573486 
	C668.755127,632.660461 664.631104,632.766785 661.257568,633.704285 
	C661.257568,637.136230 661.257568,640.377502 661.257568,643.797791 
	C662.343506,643.946899 663.131531,644.107727 663.926392,644.156067 
	C672.082275,644.652649 672.088135,644.647705 671.791931,652.793701 
	C671.768127,653.449280 671.593201,654.099365 671.488403,654.752014 
	C671.488403,654.752014 671.195740,654.803711 670.641296,654.897949 
	C667.202209,654.992126 664.317566,654.992126 660.273926,654.992126 
	C661.507202,656.974426 662.195129,658.080139 662.883118,659.185852 
z"/>
<path fill="#DE913E" opacity="1.000000" stroke="none" 
	d="
M685.011780,655.864990 
	C685.452759,655.913330 685.893738,655.961670 687.124512,656.035950 
	C697.601624,656.053650 707.288940,656.045410 716.976196,656.037109 
	C717.249390,656.812988 717.522583,657.588928 717.678467,658.919922 
	C717.684509,660.656616 717.807861,661.838257 717.931213,663.019897 
	C717.897461,663.467407 717.863770,663.914917 717.667847,665.024963 
	C712.151428,665.963928 706.797058,666.240356 701.382935,666.519836 
	C701.382935,669.417175 701.382935,671.948669 701.382935,675.013306 
	C706.485352,675.013306 711.232422,675.013306 715.979492,675.013306 
	C715.979492,675.013306 716.000000,675.000000 716.010742,675.457764 
	C716.019531,678.604126 716.017517,681.292725 716.015503,683.981323 
	C716.015503,683.981323 715.985352,683.993408 715.529236,684.085327 
	C710.553589,684.177307 706.034058,684.177307 701.072876,684.177307 
	C701.072876,687.326416 701.072876,689.579590 701.317627,692.172852 
	C706.359741,692.680237 711.157043,692.964539 715.954712,692.971985 
	C718.938782,692.976624 719.415405,694.844177 718.870056,696.894592 
	C718.470276,698.397461 717.085388,700.797607 716.106873,700.813782 
	C700.983887,701.063477 685.855591,700.988098 670.799500,700.988098 
	C670.147644,699.037781 669.639771,697.518188 669.049561,695.663452 
	C668.867432,694.880554 668.767578,694.432800 668.667725,693.984985 
	C668.667725,693.984985 668.879944,693.966919 669.355347,693.810486 
	C672.230652,693.438477 674.628967,693.204712 677.030579,693.011414 
	C681.000610,692.691895 684.972595,692.398376 688.943787,692.093872 
	C689.338013,689.943420 689.732178,687.792969 690.250549,684.964722 
	C685.656128,684.964722 681.878357,684.894470 678.104309,684.981873 
	C673.041077,685.099121 674.681274,681.120178 674.167664,678.557312 
	C673.594238,675.695984 675.150146,674.669617 677.855774,674.811279 
	C679.680542,674.906860 681.514221,674.835022 683.343872,674.833130 
	C690.380188,674.825806 690.380188,674.825073 689.431824,666.713623 
	C684.862244,666.713623 680.166443,666.713623 674.997681,666.713623 
	C674.997681,662.943481 674.997681,659.993652 675.503479,656.561157 
	C679.010132,656.007385 682.010925,655.936157 685.011780,655.864990 
z"/>
<path fill="#BC844B" opacity="1.000000" stroke="none" 
	d="
M746.089844,351.490326 
	C746.398743,353.098236 746.968628,355.172211 746.969360,357.246368 
	C747.010193,482.357208 746.997131,607.468079 747.063843,732.578857 
	C747.064941,734.693359 747.979736,736.807251 748.886230,739.025879 
	C748.573914,740.019714 747.843628,740.909058 747.113281,741.798462 
	C746.693542,741.702515 746.273804,741.606567 745.854065,741.510620 
	C745.854065,738.655701 745.853577,735.800781 745.854126,732.945862 
	C745.873413,635.447388 745.881165,537.948914 745.919495,440.450409 
	C745.931091,410.952393 746.027649,381.454468 746.089844,351.490326 
z"/>
<path fill="#FEF7E4" opacity="1.000000" stroke="none" 
	d="
M684.914062,655.490479 
	C682.010925,655.936157 679.010132,656.007385 675.565552,656.120361 
	C674.182373,655.739624 673.242859,655.317139 671.895874,654.823364 
	C671.593201,654.099365 671.768127,653.449280 671.791931,652.793701 
	C672.088135,644.647705 672.082275,644.652649 663.926392,644.156067 
	C663.131531,644.107727 662.343506,643.946899 661.257568,643.797791 
	C661.257568,640.377502 661.257568,637.136230 661.257568,633.704285 
	C664.631104,632.766785 668.755127,632.660461 671.161072,630.573486 
	C672.675232,629.260010 671.615295,624.979004 671.683228,621.587524 
	C672.888733,621.103821 674.121033,621.061829 675.634155,621.235229 
	C675.914978,621.450562 675.877930,621.915710 675.934448,621.948303 
	C675.990906,621.980896 675.916504,621.873474 675.604492,622.168701 
	C675.292542,631.500000 675.292542,640.536194 675.292542,649.768005 
	C688.787842,649.768005 701.837769,649.768005 714.887695,649.768005 
	C714.354553,650.375061 713.823059,651.509888 713.288025,651.511536 
	C701.747681,651.547668 690.207031,651.436584 678.666382,651.435730 
	C677.864014,651.435608 677.061707,652.072388 675.074890,652.915771 
	C679.145569,653.835205 681.980896,654.475647 684.914062,655.490479 
z"/>
<path fill="#CC955C" opacity="1.000000" stroke="none" 
	d="
M640.684753,600.277527 
	C640.371582,601.856445 639.297363,603.239441 639.075134,604.747925 
	C638.324219,609.846802 639.390991,610.998291 644.507141,611.002808 
	C667.751160,611.023376 690.995117,611.015686 714.239136,611.013123 
	C721.403503,611.012329 723.183960,607.576416 719.239014,600.693115 
	C720.049194,601.221008 721.834473,601.931458 721.955566,602.859131 
	C722.337830,605.787598 722.096619,608.797485 722.096619,612.186646 
	C693.909363,612.186646 666.179016,612.186646 637.739563,612.186646 
	C637.739563,608.918457 637.567810,605.654724 637.857361,602.432495 
	C637.932068,601.601196 639.455994,600.900085 640.684753,600.277527 
z"/>
<path fill="#C48447" opacity="1.000000" stroke="none" 
	d="
M612.382935,821.724182 
	C612.001770,774.318298 611.999390,726.719177 612.016968,679.119995 
	C612.017639,677.303223 612.210999,675.486511 612.580444,673.357788 
	C612.918823,707.930786 613.028564,742.815735 613.046021,777.700684 
	C613.053345,792.310669 612.864746,806.920837 612.382935,821.724182 
z"/>
<path fill="#C48447" opacity="1.000000" stroke="none" 
	d="
M675.877930,621.915710 
	C675.877930,621.915710 675.914978,621.450562 675.951782,621.220093 
	C676.163147,620.961731 676.337830,620.933899 677.229004,620.921143 
	C689.960205,620.918640 701.974731,620.901062 713.989319,620.883484 
	C714.265320,621.111145 714.541260,621.338745 714.917114,622.254333 
	C715.075439,628.955322 715.133789,634.968323 715.192139,640.981384 
	C715.151550,642.381104 715.111023,643.780884 715.054077,645.963806 
	C715.072571,647.494446 715.107361,648.241943 715.142151,648.989380 
	C715.142151,648.989380 714.951111,649.358032 714.919434,649.562988 
	C701.837769,649.768005 688.787842,649.768005 675.292542,649.768005 
	C675.292542,640.536194 675.292542,631.500000 675.630249,622.648071 
	C675.973694,630.160645 676.063354,637.490540 675.943054,644.816895 
	C675.896667,647.641724 676.528931,649.092834 679.782532,649.042297 
	C689.940063,648.884583 700.102295,648.915344 710.261047,649.024414 
	C713.044617,649.054260 714.119507,648.114624 714.053894,645.279053 
	C713.911316,639.119812 713.822266,632.946777 714.085571,626.795349 
	C714.242126,623.138550 713.184692,621.837891 709.352539,621.910583 
	C698.198303,622.122437 687.036682,621.942200 675.877930,621.915710 
z"/>
<path fill="#FEF7E4" opacity="1.000000" stroke="none" 
	d="
M719.879944,692.129089 
	C723.911011,694.813354 721.793030,698.776367 721.456787,702.071655 
	C721.371826,702.904114 717.625549,703.883606 715.551270,703.908142 
	C701.754517,704.070923 687.954651,704.033142 674.156616,703.939819 
	C672.488831,703.928589 670.825928,703.193787 669.546448,702.451660 
	C686.481506,702.109070 703.030884,702.109070 719.879944,702.109070 
	C719.879944,698.365906 719.879944,695.247498 719.879944,692.129089 
z"/>
<path fill="#CC955C" opacity="1.000000" stroke="none" 
	d="
M688.668274,600.231079 
	C688.466553,600.739807 687.878601,601.021057 687.290710,601.302307 
	C686.534241,599.199829 685.163696,597.108887 685.123840,594.992859 
	C684.908569,583.575928 685.027161,572.152710 685.023193,560.731689 
	C685.020020,551.568115 685.015381,551.568115 694.521118,552.333801 
	C692.361450,552.727905 689.914307,552.941650 686.777771,553.215576 
	C686.777771,556.102295 686.778137,558.873169 686.777710,561.643982 
	C686.775818,572.798889 686.712463,583.954529 686.839050,595.107971 
	C686.857666,596.745178 687.778687,598.372009 688.668274,600.231079 
z"/>
<path fill="#C48447" opacity="1.000000" stroke="none" 
	d="
M673.864258,489.568542 
	C674.267273,490.804871 674.937134,492.495239 674.952393,494.191498 
	C675.049561,504.990845 675.180359,515.795898 674.912598,526.589478 
	C674.809814,530.735352 676.719788,531.064148 680.031128,531.087280 
	C683.428711,531.110901 685.143127,530.589539 685.084229,526.522583 
	C684.915955,514.909790 685.200928,503.290466 685.575073,491.364594 
	C685.842468,504.517578 685.842468,517.979675 685.842468,531.830444 
	C682.080383,531.830444 678.369385,531.830444 673.828369,531.830444 
	C673.828369,517.873474 673.828369,503.949402 673.864258,489.568542 
z"/>
<path fill="#C48447" opacity="1.000000" stroke="none" 
	d="
M719.901550,692.102417 
	C719.879944,695.247498 719.879944,698.365906 719.879944,702.109070 
	C703.030884,702.109070 686.481506,702.109070 669.466309,702.051270 
	C668.952881,701.538879 668.905396,701.084290 668.871826,699.906128 
	C668.967834,698.121155 669.049866,697.059875 669.131836,695.998535 
	C669.639771,697.518188 670.147644,699.037781 670.799500,700.988098 
	C685.855591,700.988098 700.983887,701.063477 716.106873,700.813782 
	C717.085388,700.797607 718.470276,698.397461 718.870056,696.894592 
	C719.415405,694.844177 718.938782,692.976624 715.954712,692.971985 
	C711.157043,692.964539 706.359741,692.680237 701.778198,692.218384 
	C707.973999,691.996460 713.953979,692.069153 719.933960,692.141846 
	C719.933960,692.141846 719.923157,692.075745 719.901550,692.102417 
z"/>
<path fill="#FEF7E4" opacity="1.000000" stroke="none" 
	d="
M715.947815,674.642334 
	C711.232422,675.013306 706.485352,675.013306 701.382935,675.013306 
	C701.382935,671.948669 701.382935,669.417175 701.382935,666.519836 
	C706.797058,666.240356 712.151428,665.963928 717.770142,665.347778 
	C718.205139,665.664062 718.375610,666.320068 718.546082,666.976196 
	C715.609680,667.315002 712.680542,667.760071 709.734680,667.959412 
	C707.324463,668.122498 704.894409,667.992615 701.481750,667.992615 
	C703.670410,673.660461 707.472961,672.901978 711.128113,672.894409 
	C712.723145,672.891052 714.320068,673.784851 715.947815,674.642334 
z"/>
<path fill="#C4803F" opacity="1.000000" stroke="none" 
	d="
M672.501770,462.922729 
	C671.264587,463.265106 669.566162,463.915039 667.858337,463.940826 
	C660.211365,464.056274 652.555054,464.184692 644.915588,463.920105 
	C640.710083,463.774445 640.987183,466.233276 640.964539,469.027344 
	C640.941467,471.877869 640.807556,474.208313 644.960205,474.095459 
	C652.084351,473.901886 659.222839,474.238892 666.648499,474.640503 
	C658.033936,474.927917 649.126221,474.927917 639.775391,474.927917 
	C639.775391,471.605225 639.448669,468.455688 639.957214,465.447388 
	C640.129028,464.430786 642.400818,463.088531 643.738708,463.058899 
	C653.167419,462.850159 662.602905,462.944977 672.501770,462.922729 
z"/>
<path fill="#BC844B" opacity="1.000000" stroke="none" 
	d="
M685.590027,388.236084 
	C686.607666,387.861023 688.073242,387.080688 689.551880,387.054993 
	C697.004028,386.925385 704.469543,386.761108 711.910461,387.076813 
	C716.429993,387.268555 715.923340,384.578583 716.070312,381.693268 
	C716.233032,378.496124 715.544434,376.881622 711.780396,376.921356 
	C703.042603,377.013550 694.299988,376.642670 685.349121,376.099579 
	C695.555786,375.739685 705.972717,375.739685 716.742004,375.739685 
	C716.742004,380.045349 716.742004,383.755035 716.742004,388.178802 
	C706.484131,388.178802 696.264038,388.178802 685.590027,388.236084 
z"/>
<path fill="#BC844B" opacity="1.000000" stroke="none" 
	d="
M714.764526,540.656372 
	C692.322998,541.032715 669.677673,541.026428 646.236328,541.002563 
	C645.217834,540.979980 644.995300,540.974976 644.772827,540.969910 
	C645.981323,540.635742 647.188782,540.014221 648.398376,540.010132 
	C669.804993,539.938049 691.211792,539.938171 712.618591,539.942627 
	C713.265930,539.942749 713.913269,540.158447 714.764526,540.656372 
z"/>
<path fill="#FEF7E4" opacity="1.000000" stroke="none" 
	d="
M719.781921,691.767822 
	C713.953979,692.069153 707.973999,691.996460 701.533447,691.878296 
	C701.072876,689.579590 701.072876,687.326416 701.072876,684.177307 
	C706.034058,684.177307 710.553589,684.177307 715.531738,684.101379 
	C713.381348,684.682861 710.764648,685.311707 708.165649,686.006714 
	C706.148376,686.546204 702.390808,687.295410 702.422424,687.734131 
	C702.718750,691.848022 706.110596,689.548401 708.178406,689.937317 
	C711.953369,690.647339 715.808289,690.931824 719.781921,691.767822 
z"/>
<path fill="#C48447" opacity="1.000000" stroke="none" 
	d="
M694.502441,474.928772 
	C700.609985,474.565887 707.181519,473.998138 713.740723,474.116821 
	C717.836182,474.190948 719.129883,473.030945 719.147156,468.837646 
	C719.164307,464.674347 717.623535,463.877808 713.899414,463.914368 
	C704.795471,464.003754 695.687500,463.690826 686.314026,463.219971 
	C697.149109,462.900055 708.251282,462.900055 719.769165,462.900055 
	C719.769165,467.060394 719.769165,470.747955 719.769165,475.014069 
	C711.448364,475.014069 703.204834,475.014069 694.502441,474.928772 
z"/>
<path fill="#FEF7E4" opacity="1.000000" stroke="none" 
	d="
M716.898315,655.636475 
	C707.288940,656.045410 697.601624,656.053650 687.452637,655.970520 
	C687.814941,655.260620 688.630798,654.117493 689.464233,654.104614 
	C697.922058,653.973877 706.383057,654.000671 714.842224,654.081665 
	C715.505249,654.087952 716.161255,654.833679 716.898315,655.636475 
z"/>
<path fill="#CC955C" opacity="1.000000" stroke="none" 
	d="
M673.606201,553.372437 
	C674.066040,553.889587 674.930847,554.847717 674.936707,555.811157 
	C675.021606,569.714905 675.003601,583.619446 674.953247,597.523560 
	C674.950500,598.268982 674.442444,599.012512 673.839722,599.929138 
	C673.543823,584.672852 673.577820,569.244446 673.606201,553.372437 
z"/>
<path fill="#CC955C" opacity="1.000000" stroke="none" 
	d="
M672.424622,375.780396 
	C671.399353,376.153961 669.924438,376.903931 668.432861,376.938538 
	C662.472656,377.076843 656.507324,376.994507 650.543884,376.990692 
	C642.208313,376.985382 641.778381,377.562469 643.842285,386.835785 
	C644.000549,387.453400 644.012573,387.942841 644.012573,387.942841 
	C639.601440,385.287994 642.983582,381.122589 642.270325,377.743927 
	C642.209595,377.456665 645.354675,375.967072 647.031616,375.927185 
	C655.339600,375.729675 663.654724,375.831604 672.424622,375.780396 
z"/>
<path fill="#FEF7E4" opacity="1.000000" stroke="none" 
	d="
M713.679382,620.609619 
	C701.974731,620.901062 689.960205,620.918640 677.485352,620.852661 
	C680.749207,620.512695 684.472900,620.051025 688.197693,620.041687 
	C696.587952,620.020813 704.978821,620.223877 713.679382,620.609619 
z"/>
<path fill="#C4803F" opacity="1.000000" stroke="none" 
	d="
M848.861938,520.482544 
	C848.507202,516.346436 848.086731,511.758026 848.048157,507.166382 
	C847.985474,499.697418 848.172607,492.226349 848.487061,484.428589 
	C848.802490,496.076904 848.885132,508.052826 848.861938,520.482544 
z"/>
<path fill="#BC844B" opacity="1.000000" stroke="none" 
	d="
M644.475708,388.015411 
	C644.012573,387.942841 644.000549,387.453400 644.011230,387.208435 
	C653.494446,387.147308 662.966858,387.331116 672.661987,387.867035 
	C663.569397,388.175415 654.254089,388.131683 644.475708,388.015411 
z"/>
<path fill="#C4803F" opacity="1.000000" stroke="none" 
	d="
M848.426086,480.527405 
	C847.559998,475.893585 846.701172,470.882202 846.051453,465.843842 
	C845.800842,463.900726 846.025391,461.896332 846.031982,459.461670 
	C846.859314,466.048645 847.688049,473.093872 848.426086,480.527405 
z"/>
<path fill="#C48447" opacity="1.000000" stroke="none" 
	d="
M688.484070,692.030151 
	C684.972595,692.398376 681.000610,692.691895 677.030579,693.011414 
	C674.628967,693.204712 672.230652,693.438477 669.459351,693.833496 
	C670.265930,693.332031 671.420959,692.114990 672.626099,692.063232 
	C677.750732,691.842834 682.890259,691.967590 688.484070,692.030151 
z"/>
<path fill="#FEF7E4" opacity="1.000000" stroke="none" 
	d="
M715.445435,640.657837 
	C715.133789,634.968323 715.075439,628.955322 715.068420,622.477539 
	C715.312744,628.119934 715.505676,634.227173 715.445435,640.657837 
z"/>
<path fill="#FEF7E4" opacity="1.000000" stroke="none" 
	d="
M663.048584,658.836304 
	C662.195129,658.080139 661.507202,656.974426 660.273926,654.992126 
	C664.317566,654.992126 667.202209,654.992126 670.536621,655.003418 
	C668.395569,656.172058 665.804810,657.329468 663.048584,658.836304 
z"/>
<path fill="#FEF7E4" opacity="1.000000" stroke="none" 
	d="
M716.297363,683.738953 
	C716.017517,681.292725 716.019531,678.604126 716.004028,675.467896 
	C720.769165,677.525024 716.118225,680.689575 716.297363,683.738953 
z"/>
<path fill="#C4803F" opacity="1.000000" stroke="none" 
	d="
M847.388428,535.247925 
	C847.280151,531.836792 847.486633,528.105225 848.019775,524.227478 
	C848.132019,527.696716 847.917603,531.312134 847.388428,535.247925 
z"/>
<path fill="#CC955C" opacity="1.000000" stroke="none" 
	d="
M644.363159,551.294312 
	C646.986206,551.332031 649.625305,551.756348 652.544128,552.373291 
	C650.008972,552.270874 647.194153,551.975830 644.363159,551.294312 
z"/>
<path fill="#CC955C" opacity="1.000000" stroke="none" 
	d="
M702.658875,600.322632 
	C701.759521,600.651062 700.459473,600.850647 699.051880,600.763306 
	C700.048889,600.382202 701.153564,600.288025 702.658875,600.322632 
z"/>
<path fill="#CC955C" opacity="1.000000" stroke="none" 
	d="
M644.503784,541.210144 
	C644.995300,540.974976 645.217834,540.979980 645.774475,541.010071 
	C645.745178,542.301514 645.381653,543.567871 644.698669,544.937988 
	C644.331055,543.844604 644.282898,542.647461 644.503784,541.210144 
z"/>
<path fill="#FEF7E4" opacity="1.000000" stroke="none" 
	d="
M718.208496,662.816162 
	C717.807861,661.838257 717.684509,660.656616 717.747681,659.228149 
	C718.118103,660.191650 718.301941,661.402100 718.208496,662.816162 
z"/>
<path fill="#FEF7E4" opacity="1.000000" stroke="none" 
	d="
M669.049561,695.663452 
	C669.049866,697.059875 668.967834,698.121155 668.796631,699.571716 
	C668.556519,698.158813 668.405701,696.356750 668.461304,694.269775 
	C668.767578,694.432800 668.867432,694.880554 669.049561,695.663452 
z"/>
<path fill="#CC955C" opacity="1.000000" stroke="none" 
	d="
M654.530640,600.311157 
	C653.483521,600.563110 652.047241,600.686340 650.351440,600.626709 
	C651.441772,600.356689 652.791626,600.269531 654.530640,600.311157 
z"/>
<path fill="#C48447" opacity="1.000000" stroke="none" 
	d="
M608.377441,822.962646 
	C608.863037,822.600647 609.691406,822.315063 610.869751,822.067200 
	C610.386597,822.416321 609.553467,822.727661 608.377441,822.962646 
z"/>
<path fill="#FEF7E4" opacity="1.000000" stroke="none" 
	d="
M715.365723,648.800476 
	C715.107361,648.241943 715.072571,647.494446 715.116882,646.379883 
	C715.327087,646.879028 715.458191,647.745300 715.365723,648.800476 
z"/>
<path fill="#CC955C" opacity="1.000000" stroke="none" 
	d="
M666.586182,600.314941 
	C666.112610,600.553040 665.292236,600.662659 664.269653,600.601196 
	C664.791443,600.348877 665.515320,600.267639 666.586182,600.314941 
z"/>
<path fill="#CC955C" opacity="1.000000" stroke="none" 
	d="
M644.268921,547.275513 
	C644.515808,547.531555 644.651245,548.119385 644.595154,548.835205 
	C644.321533,548.511230 644.239563,548.059265 644.268921,547.275513 
z"/>
<path fill="#CC955C" opacity="1.000000" stroke="none" 
	d="
M714.261292,552.628052 
	C714.173035,552.167175 714.385498,551.698242 714.838379,551.113525 
	C714.906494,551.538513 714.734253,552.079224 714.261292,552.628052 
z"/>
<path fill="#CC955C" opacity="1.000000" stroke="none" 
	d="
M671.727356,600.375122 
	C671.958374,600.458984 671.636230,600.714722 671.636230,600.714722 
	C671.636230,600.714722 671.234802,600.675842 671.137207,600.574341 
	C671.039551,600.472900 671.496338,600.291199 671.727356,600.375122 
z"/>
<path fill="#CC955C" opacity="1.000000" stroke="none" 
	d="
M715.207642,544.981079 
	C715.068176,544.902832 715.051453,544.686768 715.079712,544.148315 
	C715.218872,544.044678 715.334229,544.257568 715.397949,544.484863 
	C715.427368,544.589722 715.356018,544.722839 715.207642,544.981079 
z"/>
<path fill="#FFFEFC" opacity="1.000000" stroke="none" 
	d="
M412.863220,554.953308 
	C410.832611,561.745300 409.516541,568.858032 406.638794,575.269836 
	C397.645996,595.306152 381.618317,607.396912 360.569519,612.260071 
	C339.340240,617.164978 317.885101,617.475586 297.340210,609.086670 
	C273.721863,599.442871 259.714172,581.486877 254.484467,555.754517 
	C253.835159,544.251038 253.353928,533.473389 253.084076,522.690491 
	C252.913559,515.876465 253.067505,509.054535 253.060684,502.236176 
	C253.015335,456.837830 252.965881,411.439514 252.917770,366.041168 
	C253.993591,365.759857 255.068481,365.237854 256.145386,365.233673 
	C270.632843,365.178070 285.120605,365.190857 299.608276,365.205841 
	C300.244110,365.206512 300.879730,365.391174 302.099213,365.580963 
	C302.099213,367.278198 302.099854,368.879181 302.099121,370.480133 
	C302.073364,426.433441 302.028564,482.386719 302.036255,538.340027 
	C302.037964,550.836670 304.661530,562.241516 316.561951,569.093872 
	C332.652832,578.359131 356.892639,573.388794 364.368500,555.464661 
	C364.765045,554.278442 364.871552,553.629700 364.978088,552.981018 
	C364.978058,552.981018 365.166687,552.713318 365.431335,552.261169 
	C366.218689,547.219666 367.184326,542.631348 367.195801,538.040710 
	C367.314240,490.663483 367.294312,443.285858 367.272583,395.908325 
	C367.268158,386.273010 367.095245,376.637726 367.000000,367.002441 
	C367.067596,366.644928 367.135223,366.287445 367.606262,365.584717 
	C382.660889,365.120270 397.312103,365.001068 411.963287,364.881866 
	C412.232666,365.123901 412.502014,365.365967 412.872681,366.291138 
	C412.937042,429.633972 412.900146,492.293640 412.863220,554.953308 
z"/>
<path fill="#FFFEFB" opacity="1.000000" stroke="none" 
	d="
M479.043457,497.837341 
	C479.043457,497.837341 479.011597,497.412964 479.002197,496.896851 
	C478.704254,495.842896 478.415680,495.305054 478.127136,494.767181 
	C471.234192,478.421570 464.424835,462.040100 457.429138,445.738586 
	C446.304382,419.815460 435.053558,393.946381 423.868195,368.049194 
	C423.560913,367.337708 423.392883,366.566071 422.969116,365.213470 
	C433.395081,365.213470 443.330200,365.192505 453.265167,365.222260 
	C458.248016,365.237213 464.346649,363.612549 467.897186,365.900482 
	C471.398224,368.156525 472.410858,374.376923 474.357147,378.925629 
	C483.949188,401.343109 493.478394,423.787476 503.062561,446.208374 
	C504.031677,448.475464 505.221161,450.648346 506.835724,453.940063 
	C508.032898,451.389496 508.881927,449.755859 509.582947,448.061005 
	C520.487793,421.696533 531.331360,395.306458 542.367065,368.996948 
	C543.034424,367.405975 545.176270,365.376434 546.663818,365.350128 
	C561.484070,365.088104 576.311096,365.201294 591.136108,365.230133 
	C591.578857,365.230988 592.021118,365.467987 592.648987,365.648071 
	C585.231506,382.778870 577.927551,399.799042 570.500916,416.765533 
	C558.057129,445.193878 545.487183,473.567169 533.130188,502.033020 
	C532.050781,504.519592 531.774963,507.518555 531.766541,510.281494 
	C531.667542,542.764038 531.691040,575.246948 531.682312,607.729797 
	C531.682007,608.873596 531.682251,610.017456 531.682251,611.874756 
	C515.353149,611.874756 499.278229,611.874756 482.709717,611.417236 
	C482.194214,576.730530 482.219696,542.501099 482.062439,508.272583 
	C482.049500,505.465485 480.792999,502.664062 480.114349,499.860016 
	C480.114349,499.860016 480.092072,499.950989 480.123718,499.618652 
	C479.784698,498.803314 479.414093,498.320312 479.043457,497.837341 
z"/>
<path fill="#C4803F" opacity="1.000000" stroke="none" 
	d="
M252.634842,366.340454 
	C252.965881,411.439514 253.015335,456.837830 253.060684,502.236176 
	C253.067505,509.054535 252.913559,515.876465 253.084076,522.690491 
	C253.353928,533.473389 253.835159,544.251038 254.237457,555.466064 
	C253.504562,553.120361 252.118347,550.340759 252.112396,547.558228 
	C251.984894,487.901855 252.010895,428.245209 252.023300,368.588593 
	C252.023438,367.938934 252.237640,367.289368 252.634842,366.340454 
z"/>
<path fill="#C4803F" opacity="1.000000" stroke="none" 
	d="
M413.192993,554.694214 
	C412.900146,492.293640 412.937042,429.633972 413.030518,366.513672 
	C413.388794,367.626678 413.953064,369.200073 413.954285,370.773926 
	C414.001312,430.525848 414.000000,490.277771 413.978882,550.029724 
	C413.978363,551.498291 413.681458,552.966675 413.192993,554.694214 
z"/>
<path fill="#CE863C" opacity="1.000000" stroke="none" 
	d="
M366.700134,367.293579 
	C367.095245,376.637726 367.268158,386.273010 367.272583,395.908325 
	C367.294312,443.285858 367.314240,490.663483 367.195801,538.040710 
	C367.184326,542.631348 366.218689,547.219666 365.398987,552.100708 
	C365.404083,491.433105 365.704987,430.473877 366.024109,369.514740 
	C366.027496,368.870758 366.269592,368.228058 366.700134,367.293579 
z"/>
<path fill="#C48447" opacity="1.000000" stroke="none" 
	d="
M480.072968,500.298706 
	C480.792999,502.664062 482.049500,505.465485 482.062439,508.272583 
	C482.219696,542.501099 482.194214,576.730530 482.260071,611.415039 
	C481.867615,610.063293 481.055908,608.257324 481.050934,606.449036 
	C480.971008,577.326660 481.047638,548.203735 480.949646,519.081421 
	C480.929077,512.965820 480.352142,506.852051 480.072968,500.298706 
z"/>
<path fill="#CE863C" opacity="1.000000" stroke="none" 
	d="
M411.656830,364.607788 
	C397.312103,365.001068 382.660889,365.120270 367.553162,365.314606 
	C367.889709,364.930481 368.683533,364.070251 369.475830,364.071655 
	C383.434113,364.096497 397.392212,364.226471 411.656830,364.607788 
z"/>
<path fill="#CE863C" opacity="1.000000" stroke="none" 
	d="
M364.718323,553.187622 
	C364.871552,553.629700 364.765045,554.278442 364.379486,555.117981 
	C364.219818,554.670593 364.339172,554.032410 364.718323,553.187622 
z"/>
<path fill="#C48447" opacity="1.000000" stroke="none" 
	d="
M479.046448,498.167358 
	C479.414093,498.320312 479.784698,498.803314 480.170288,499.613831 
	C479.806610,499.460022 479.428009,498.978729 479.046448,498.167358 
z"/>
<path fill="#C48447" opacity="1.000000" stroke="none" 
	d="
M478.105621,495.082458 
	C478.415680,495.305054 478.704254,495.842896 478.939819,496.693420 
	C478.619293,496.469971 478.351715,495.933868 478.105621,495.082458 
z"/>
<path fill="#E1903A" opacity="1.000000" stroke="none" 
	d="
M675.934448,621.948303 
	C687.036682,621.942200 698.198303,622.122437 709.352539,621.910583 
	C713.184692,621.837891 714.242126,623.138550 714.085571,626.795349 
	C713.822266,632.946777 713.911316,639.119812 714.053894,645.279053 
	C714.119507,648.114624 713.044617,649.054260 710.261047,649.024414 
	C700.102295,648.915344 689.940063,648.884583 679.782532,649.042297 
	C676.528931,649.092834 675.896667,647.641724 675.943054,644.816895 
	C676.063354,637.490540 675.973694,630.160645 675.942200,622.352844 
	C675.916504,621.873474 675.990906,621.980896 675.934448,621.948303 
M689.798706,631.068420 
	C686.847351,630.647034 685.739624,632.170471 686.338928,634.801514 
	C686.745056,636.584473 687.609741,639.617249 688.509338,639.707825 
	C693.357849,640.196106 698.281311,639.938904 703.327515,639.938904 
	C703.327515,636.711731 703.327515,634.143677 703.327515,631.066956 
	C698.939941,631.066956 694.834473,631.066956 689.798706,631.068420 
z"/>
<path fill="#FEFAEE" opacity="1.000000" stroke="none" 
	d="
M690.263855,631.067688 
	C694.834473,631.066956 698.939941,631.066956 703.327515,631.066956 
	C703.327515,634.143677 703.327515,636.711731 703.327515,639.938904 
	C698.281311,639.938904 693.357849,640.196106 688.509338,639.707825 
	C687.609741,639.617249 686.745056,636.584473 686.338928,634.801514 
	C685.739624,632.170471 686.847351,630.647034 690.263855,631.067688 
z"/>
</svg>